<svg width="17" height="17" viewBox="0 0 17 17" fill="none" xmlns="http://www.w3.org/2000/svg">
<path d="M16.7927 15.9665L11.4582 10.6212C12.7324 9.11518 13.266 7.13661 12.8511 5.09882C12.7029 4.39001 12.4362 3.71083 12.0508 3.09077C9.73922 -0.571206 4.8196 -0.98465 1.91525 1.87992C-0.633468 4.39022 -0.633468 8.49502 1.88569 11.0347C3.10083 12.2751 4.73088 12.9542 6.47936 12.9542H6.50892C8.05006 12.9542 9.47255 12.4227 10.6579 11.4776L15.9924 16.8228C16.1109 16.9409 16.2591 17 16.4073 17C16.5555 17 16.7038 16.9409 16.8222 16.8228C16.9407 16.7048 17 16.5571 17 16.4094C16.9409 16.232 16.8815 16.0845 16.7927 15.9663L16.7927 15.9665ZM2.71548 10.2078C0.640997 8.14064 0.670528 4.77397 2.74504 2.70676C3.78242 1.67304 5.14553 1.17106 6.47916 1.17106C7.84253 1.17106 9.2057 1.70252 10.243 2.73623C11.2506 3.74026 11.7842 5.06913 11.7842 6.48681C11.7842 7.90428 11.221 9.23315 10.2134 10.2374C8.13895 12.3043 4.76036 12.2749 2.71546 10.2077L2.71548 10.2078Z" fill="black" fill-opacity="0.4"/>
</svg>
